<svg width="411" height="309" viewBox="0 0 411 309" fill="none" xmlns="http://www.w3.org/2000/svg">
<g id="Group 1">
<path id="Vector" d="M213.246 158.9C220.429 158.9 227.18 161.691 232.254 166.764L237.228 171.738C247.386 167.233 255.318 158.205 257.951 147.198C259.405 141.124 259.307 135.244 258.006 129.831C257.342 127.068 253.834 126.146 251.826 128.154L234.332 145.648H215.136V126.68L232.631 109.185C234.639 107.176 233.716 103.668 230.954 103.005C225.54 101.704 219.66 101.606 213.587 103.06C199.546 106.419 188.605 118.35 186.368 132.615C186.002 134.728 185.926 136.785 185.951 138.816L206.97 159.855C209.031 159.154 211.139 158.9 213.246 158.9ZM226.5 172.738C220.62 166.858 211.883 165.738 204.819 169.209L177.521 142.117V126.372L145.25 102L129 118.021L153.375 150.293L169.127 150.295L196.219 177.361C192.748 184.425 193.87 193.162 199.751 199.042L229.458 228.775C233.17 232.456 239.16 232.456 242.841 228.774L256.235 215.381C259.917 211.699 259.917 205.712 256.235 201.997L226.5 172.738ZM186.865 179.949L171.834 164.943L134.027 202.75C127.332 209.445 127.332 220.29 134.027 226.985C137.369 230.324 141.749 232 146.139 232C150.529 232 154.909 230.326 158.255 226.978L188.495 196.737C186.256 191.451 185.52 185.637 186.865 179.949ZM145.25 221.844C141.886 221.844 139.156 219.114 139.156 215.75C139.156 212.383 141.886 209.656 145.25 209.656C148.614 209.656 151.344 212.373 151.344 215.75C151.344 219.127 148.614 221.844 145.25 221.844Z" fill="#393939"/>
<g id="Vector_2" filter="url(#filter0_d_5_2)">
<path d="M344.932 97.783C330.048 60.922 293.257 36.253 252.673 37.488C233.532 14.018 205.033 0.332001 174.234 0.332001C151.802 0.332001 130.544 7.515 112.756 21.105C98.386 32.085 87.117 46.905 80.322 63.562C59.678 71.994 41.85 85.805 28.335 103.929C12.415 125.278 4 150.674 4 177.37C4 245.172 59.16 300.332 126.962 300.332H300.534C359.054 300.332 406.664 252.722 406.664 194.2C406.664 152.533 382.234 114.96 344.932 97.783ZM300.534 260.332H126.962C81.217 260.332 44 223.115 44 177.37C44 140.934 67.331 109.122 102.056 98.21C108.457 96.198 113.423 91.11 115.28 84.662C122.793 58.561 147.036 40.332 174.234 40.332C195.467 40.332 214.901 51.087 226.218 69.103C230.496 75.915 238.438 79.5 246.382 78.202C249.458 77.699 252.55 77.444 255.573 77.444C280.633 77.444 302.916 94.268 309.759 118.357C311.536 124.616 316.248 129.619 322.389 131.769C348.871 141.039 366.663 166.129 366.663 194.202C366.664 230.666 336.998 260.332 300.534 260.332Z" fill="#393939"/>
</g>
</g>
<defs>
<filter id="filter0_d_5_2" x="0" y="0.332001" width="410.664" height="308" filterUnits="userSpaceOnUse" color-interpolation-filters="sRGB">
<feFlood flood-opacity="0" result="BackgroundImageFix"/>
<feColorMatrix in="SourceAlpha" type="matrix" values="0 0 0 0 0 0 0 0 0 0 0 0 0 0 0 0 0 0 127 0" result="hardAlpha"/>
<feOffset dy="4"/>
<feGaussianBlur stdDeviation="2"/>
<feComposite in2="hardAlpha" operator="out"/>
<feColorMatrix type="matrix" values="0 0 0 0 0 0 0 0 0 0 0 0 0 0 0 0 0 0 0.25 0"/>
<feBlend mode="normal" in2="BackgroundImageFix" result="effect1_dropShadow_5_2"/>
<feBlend mode="normal" in="SourceGraphic" in2="effect1_dropShadow_5_2" result="shape"/>
</filter>
</defs>
</svg>
