<svg width="48" height="48" viewBox="0 0 48 48" fill="none" xmlns="http://www.w3.org/2000/svg">
<g clip-path="url(#clip0_2_2)" filter="url(#filter0_i_2_2)">
<path d="M24 9L41.3205 39H6.67949L24 9Z" fill="#FFE600"/>
<g filter="url(#filter1_i_2_2)">
<path d="M5.4689 42C3.92823 42 2.96611 40.3313 3.73804 38.9979L22.2692 6.98965C23.0395 5.65908 24.9605 5.65908 25.7309 6.98965L44.262 38.9979C45.0339 40.3313 44.0718 42 42.5311 42H5.4689ZM22.7 29.1C22.7 29.9284 23.3716 30.6 24.2 30.6V30.6C25.0284 30.6 25.7 29.9284 25.7 29.1V20.9C25.7 20.0716 25.0284 19.4 24.2 19.4V19.4C23.3716 19.4 22.7 20.0716 22.7 20.9V29.1ZM24.2 36.15C24.6333 36.15 24.9917 36.0083 25.275 35.725C25.5583 35.4417 25.7 35.0833 25.7 34.65C25.7 34.2167 25.5583 33.8583 25.275 33.575C24.9917 33.2917 24.6333 33.15 24.2 33.15C23.7667 33.15 23.4083 33.2917 23.125 33.575C22.8417 33.8583 22.7 34.2167 22.7 34.65C22.7 35.0833 22.8417 35.4417 23.125 35.725C23.4083 36.0083 23.7667 36.15 24.2 36.15ZM8.9394 35.9975C8.16699 37.3308 9.12908 39 10.67 39H37.33C38.8709 39 39.833 37.3308 39.0606 35.9975L25.7306 12.9873C24.9601 11.6574 23.0399 11.6574 22.2694 12.9873L8.9394 35.9975Z" fill="black"/>
</g>
<path d="M4.17075 39.2484L22.7019 7.24017C23.2796 6.24224 24.7204 6.24224 25.2981 7.24017L43.8292 39.2485C44.4082 40.2484 43.6866 41.5 42.5311 41.5H5.4689C4.3134 41.5 3.59181 40.2484 4.17075 39.2484ZM25.2 20.9V29.1C25.2 29.6523 24.7523 30.1 24.2 30.1C23.6477 30.1 23.2 29.6523 23.2 29.1V20.9C23.2 20.3477 23.6477 19.9 24.2 19.9C24.7523 19.9 25.2 20.3477 25.2 20.9ZM24.9214 35.3714C24.74 35.5529 24.5126 35.65 24.2 35.65C23.8874 35.65 23.66 35.5529 23.4786 35.3714C23.2971 35.19 23.2 34.9627 23.2 34.65C23.2 34.3374 23.2971 34.11 23.4786 33.9286C23.66 33.7471 23.8874 33.65 24.2 33.65C24.5127 33.65 24.74 33.7471 24.9214 33.9286C25.1029 34.11 25.2 34.3374 25.2 34.65C25.2 34.9626 25.1029 35.19 24.9214 35.3714ZM10.67 39.5H37.33C39.2561 39.5 40.4588 37.4135 39.4932 35.7468L26.1632 12.7367C25.2002 11.0742 22.7998 11.0742 21.8368 12.7367L8.50676 35.7468C7.54124 37.4135 8.74385 39.5 10.67 39.5Z" stroke="black"/>
</g>
<defs>
<filter id="filter0_i_2_2" x="0" y="0" width="48" height="52" filterUnits="userSpaceOnUse" color-interpolation-filters="sRGB">
<feFlood flood-opacity="0" result="BackgroundImageFix"/>
<feBlend mode="normal" in="SourceGraphic" in2="BackgroundImageFix" result="shape"/>
<feColorMatrix in="SourceAlpha" type="matrix" values="0 0 0 0 0 0 0 0 0 0 0 0 0 0 0 0 0 0 127 0" result="hardAlpha"/>
<feOffset dy="4"/>
<feGaussianBlur stdDeviation="2"/>
<feComposite in2="hardAlpha" operator="arithmetic" k2="-1" k3="1"/>
<feColorMatrix type="matrix" values="0 0 0 0 0 0 0 0 0 0 0 0 0 0 0 0 0 0 0.25 0"/>
<feBlend mode="normal" in2="shape" result="effect1_innerShadow_2_2"/>
</filter>
<filter id="filter1_i_2_2" x="3.4659" y="5.99173" width="41.0682" height="40.0083" filterUnits="userSpaceOnUse" color-interpolation-filters="sRGB">
<feFlood flood-opacity="0" result="BackgroundImageFix"/>
<feBlend mode="normal" in="SourceGraphic" in2="BackgroundImageFix" result="shape"/>
<feColorMatrix in="SourceAlpha" type="matrix" values="0 0 0 0 0 0 0 0 0 0 0 0 0 0 0 0 0 0 127 0" result="hardAlpha"/>
<feOffset dy="4"/>
<feGaussianBlur stdDeviation="2"/>
<feComposite in2="hardAlpha" operator="arithmetic" k2="-1" k3="1"/>
<feColorMatrix type="matrix" values="0 0 0 0 0 0 0 0 0 0 0 0 0 0 0 0 0 0 0.25 0"/>
<feBlend mode="normal" in2="shape" result="effect1_innerShadow_2_2"/>
</filter>
<clipPath id="clip0_2_2">
<rect width="48" height="48" fill="white"/>
</clipPath>
</defs>
</svg>
